<svg xmlns="http://www.w3.org/2000/svg" xmlns:xlink="http://www.w3.org/1999/xlink" width="940" height="440" viewBox="0 0 940 440"><defs><marker id="a" markerWidth="9" markerHeight="7" refX="8.5" refY="3.5" orient="auto"><polygon points="0 0, 9 3.5, 0 7" fill="#000"/></marker><marker id="as" markerWidth="9" markerHeight="7" refX="0.5" refY="3.5" orient="auto"><polygon points="9 0, 0 3.5, 9 7" fill="#000"/></marker></defs><rect width="940" height="440" fill="#fff"/><text x="215" y="36" font-family="DejaVu Sans, Liberation Sans, Arial, sans-serif" font-size="12.5" font-weight="bold" font-style="normal" text-anchor="middle" fill="#000">а) Прието решение</text><rect x="260" y="60" width="200" height="290" rx="4" fill="#fafafa" stroke="#000" stroke-width="1.4" stroke-dasharray="6 4"/><text x="360" y="80" font-family="DejaVu Sans, Liberation Sans, Arial, sans-serif" font-size="11" font-weight="bold" font-style="normal" text-anchor="middle" fill="#000">ESP8266</text><line x1="368" y1="110" x2="392" y2="110" stroke="#000" stroke-width="2.2"/><text x="380" y="103" font-family="DejaVu Sans, Liberation Sans, Arial, sans-serif" font-size="11" font-weight="bold" font-style="normal" text-anchor="middle" fill="#000">+3,3 V</text><line x1="380" y1="110" x2="380" y2="142.5" stroke="#000" stroke-width="1.5"/><rect x="374.0" y="142.5" width="12" height="30" rx="0" fill="#fff" stroke="#000" stroke-width="1.5"/><line x1="380" y1="172.5" x2="380" y2="205" stroke="#000" stroke-width="1.5"/><text x="392.0" y="155.5" font-family="DejaVu Sans, Liberation Sans, Arial, sans-serif" font-size="11" font-weight="bold" font-style="normal" text-anchor="start" fill="#000">R</text><text x="392.0" y="169.5" font-family="DejaVu Sans, Liberation Sans, Arial, sans-serif" font-size="10" font-weight="normal" font-style="normal" text-anchor="start" fill="#000">вграден</text><line x1="380" y1="205" x2="380" y2="220" stroke="#000" stroke-width="1.5"/><circle cx="380" cy="220" r="3.2" fill="#000"/><line x1="260" y1="220" x2="380" y2="220" stroke="#000" stroke-width="1.5"/><line x1="380" y1="220" x2="420" y2="220" stroke="#000" stroke-width="1.5" marker-end="url(#a)"/><text x="424" y="244" font-family="DejaVu Sans, Liberation Sans, Arial, sans-serif" font-size="9.5" font-weight="normal" font-style="italic" text-anchor="end" fill="#000">към логиката</text><circle cx="260" cy="220" r="4" fill="#fff" stroke="#000" stroke-width="1.4"/><text x="254" y="212" font-family="DejaVu Sans, Liberation Sans, Arial, sans-serif" font-size="10.5" font-weight="bold" font-style="normal" text-anchor="end" fill="#000">D5 (GPIO14)</text><line x1="256" y1="220" x2="150" y2="220" stroke="#000" stroke-width="1.5"/><line x1="150" y1="220" x2="150" y2="258.0" stroke="#000" stroke-width="1.5"/><circle cx="150" cy="258.0" r="2.4" fill="#000"/><line x1="150" y1="282.0" x2="150" y2="320" stroke="#000" stroke-width="1.5"/><circle cx="150" cy="282.0" r="2.4" fill="#000"/><line x1="148" y1="282.0" x2="134" y2="258.0" stroke="#000" stroke-width="1.8"/><line x1="141" y1="270.0" x2="124" y2="270.0" stroke="#000" stroke-width="1.4" stroke-dasharray="3 2"/><line x1="124" y1="264.0" x2="124" y2="276.0" stroke="#000" stroke-width="1.6"/><text x="160" y="274.0" font-family="DejaVu Sans, Liberation Sans, Arial, sans-serif" font-size="11" font-weight="bold" font-style="normal" text-anchor="start" fill="#000">SB1</text><line x1="150" y1="320" x2="150" y2="330" stroke="#000" stroke-width="1.5"/><line x1="139" y1="330" x2="161" y2="330" stroke="#000" stroke-width="1.8"/><line x1="143" y1="335" x2="157" y2="335" stroke="#000" stroke-width="1.6"/><line x1="147" y1="340" x2="153" y2="340" stroke="#000" stroke-width="1.4"/><text x="360" y="370" font-family="DejaVu Sans, Liberation Sans, Arial, sans-serif" font-size="10" font-weight="normal" font-style="italic" text-anchor="middle" fill="#000">INPUT_PULLUP, програмен филтър 60 ms</text><text x="700" y="36" font-family="DejaVu Sans, Liberation Sans, Arial, sans-serif" font-size="12.5" font-weight="bold" font-style="normal" text-anchor="middle" fill="#000">б) Алтернатива: RC филтър</text><line x1="588" y1="90" x2="612" y2="90" stroke="#000" stroke-width="2.2"/><text x="600" y="83" font-family="DejaVu Sans, Liberation Sans, Arial, sans-serif" font-size="11" font-weight="bold" font-style="normal" text-anchor="middle" fill="#000">+3,3 V</text><line x1="600" y1="90" x2="600" y2="138.0" stroke="#000" stroke-width="1.5"/><rect x="594.0" y="138.0" width="12" height="34" rx="0" fill="#fff" stroke="#000" stroke-width="1.5"/><line x1="600" y1="172.0" x2="600" y2="220" stroke="#000" stroke-width="1.5"/><text x="588.0" y="153.0" font-family="DejaVu Sans, Liberation Sans, Arial, sans-serif" font-size="11" font-weight="bold" font-style="normal" text-anchor="end" fill="#000">Rп</text><text x="588.0" y="167.0" font-family="DejaVu Sans, Liberation Sans, Arial, sans-serif" font-size="10" font-weight="normal" font-style="normal" text-anchor="end" fill="#000">10 kΩ</text><circle cx="600" cy="220" r="3.2" fill="#000"/><line x1="600" y1="220" x2="600" y2="276.0" stroke="#000" stroke-width="1.5"/><line x1="587" y1="276.0" x2="613" y2="276.0" stroke="#000" stroke-width="2.2"/><line x1="587" y1="284.0" x2="613" y2="284.0" stroke="#000" stroke-width="2.2"/><line x1="600" y1="284.0" x2="600" y2="340" stroke="#000" stroke-width="1.5"/><text x="580" y="278.0" font-family="DejaVu Sans, Liberation Sans, Arial, sans-serif" font-size="11" font-weight="bold" font-style="normal" text-anchor="end" fill="#000">Cф</text><text x="580" y="292.0" font-family="DejaVu Sans, Liberation Sans, Arial, sans-serif" font-size="10" font-weight="normal" font-style="normal" text-anchor="end" fill="#000">1 µF</text><line x1="600" y1="340" x2="600" y2="350" stroke="#000" stroke-width="1.5"/><line x1="589" y1="350" x2="611" y2="350" stroke="#000" stroke-width="1.8"/><line x1="593" y1="355" x2="607" y2="355" stroke="#000" stroke-width="1.6"/><line x1="597" y1="360" x2="603" y2="360" stroke="#000" stroke-width="1.4"/><line x1="600" y1="220" x2="880" y2="220" stroke="#000" stroke-width="1.5"/><circle cx="720" cy="220" r="3.2" fill="#000"/><line x1="720" y1="220" x2="720" y2="241.0" stroke="#000" stroke-width="1.5"/><rect x="714.0" y="241.0" width="12" height="28" rx="0" fill="#fff" stroke="#000" stroke-width="1.5"/><line x1="720" y1="269.0" x2="720" y2="290" stroke="#000" stroke-width="1.5"/><text x="732.0" y="253.0" font-family="DejaVu Sans, Liberation Sans, Arial, sans-serif" font-size="11" font-weight="bold" font-style="normal" text-anchor="start" fill="#000">Rогр</text><text x="732.0" y="267.0" font-family="DejaVu Sans, Liberation Sans, Arial, sans-serif" font-size="10" font-weight="normal" font-style="normal" text-anchor="start" fill="#000">100 Ω</text><line x1="720" y1="290" x2="720" y2="313.0" stroke="#000" stroke-width="1.5"/><circle cx="720" cy="313.0" r="2.4" fill="#000"/><line x1="720" y1="337.0" x2="720" y2="360" stroke="#000" stroke-width="1.5"/><circle cx="720" cy="337.0" r="2.4" fill="#000"/><line x1="718" y1="337.0" x2="704" y2="313.0" stroke="#000" stroke-width="1.8"/><line x1="711" y1="325.0" x2="694" y2="325.0" stroke="#000" stroke-width="1.4" stroke-dasharray="3 2"/><line x1="694" y1="319.0" x2="694" y2="331.0" stroke="#000" stroke-width="1.6"/><text x="730" y="329.0" font-family="DejaVu Sans, Liberation Sans, Arial, sans-serif" font-size="11" font-weight="bold" font-style="normal" text-anchor="start" fill="#000">SB1</text><line x1="720" y1="360" x2="720" y2="370" stroke="#000" stroke-width="1.5"/><line x1="709" y1="370" x2="731" y2="370" stroke="#000" stroke-width="1.8"/><line x1="713" y1="375" x2="727" y2="375" stroke="#000" stroke-width="1.6"/><line x1="717" y1="380" x2="723" y2="380" stroke="#000" stroke-width="1.4"/><circle cx="880" cy="220" r="4" fill="#fff" stroke="#000" stroke-width="1.4"/><text x="880" y="208" font-family="DejaVu Sans, Liberation Sans, Arial, sans-serif" font-size="10.5" font-weight="bold" font-style="normal" text-anchor="middle" fill="#000">D5</text><text x="760" y="170" font-family="DejaVu Sans, Liberation Sans, Arial, sans-serif" font-size="10.5" font-weight="normal" font-style="italic" text-anchor="start" fill="#000">τ = Rп · Cф = 10 ms</text><text x="470.0" y="424" font-family="DejaVu Sans, Liberation Sans, Arial, sans-serif" font-size="14" font-weight="bold" font-style="normal" text-anchor="middle" fill="#000">Фиг. 2.3. Свързване на бутоните: а) прието решение; б) алтернатива с RC филтър</text></svg>