<svg xmlns="http://www.w3.org/2000/svg" xmlns:xlink="http://www.w3.org/1999/xlink" width="780" height="930" viewBox="0 0 780 930"><defs><marker id="a" markerWidth="9" markerHeight="7" refX="8.5" refY="3.5" orient="auto"><polygon points="0 0, 9 3.5, 0 7" fill="#000"/></marker><marker id="as" markerWidth="9" markerHeight="7" refX="0.5" refY="3.5" orient="auto"><polygon points="9 0, 0 3.5, 9 7" fill="#000"/></marker></defs><rect width="780" height="930" fill="#fff"/><rect x="265.0" y="16" width="250" height="34" rx="17.0" fill="#fff" stroke="#000" stroke-width="1.6"/><text x="390" y="37.5" font-family="DejaVu Sans, Liberation Sans, Arial, sans-serif" font-size="12.5" font-weight="normal" font-style="normal" text-anchor="middle" fill="#000">handleSerialCommands()</text><polygon points="390,70 530.0,102.0 390,134 250.0,102.0" fill="#fff" stroke="#000" stroke-width="1.5"/><text x="390" y="98.25" font-family="DejaVu Sans, Liberation Sans, Arial, sans-serif" font-size="12.5" font-weight="normal" font-style="normal" text-anchor="middle" fill="#000">Има приети</text><text x="390" y="114.75" font-family="DejaVu Sans, Liberation Sans, Arial, sans-serif" font-size="12.5" font-weight="normal" font-style="normal" text-anchor="middle" fill="#000">знаци?</text><rect x="259.0" y="154" width="262" height="46" rx="0" fill="#fff" stroke="#000" stroke-width="1.5"/><text x="390" y="173.25" font-family="DejaVu Sans, Liberation Sans, Arial, sans-serif" font-size="12.5" font-weight="normal" font-style="normal" text-anchor="middle" fill="#000">Четене на реда до „\n"</text><text x="390" y="189.75" font-family="DejaVu Sans, Liberation Sans, Arial, sans-serif" font-size="12.5" font-weight="normal" font-style="normal" text-anchor="middle" fill="#000">(най-много 50 ms)</text><polygon points="390,220 530.0,249.0 390,278 250.0,249.0" fill="#fff" stroke="#000" stroke-width="1.5"/><text x="390" y="253.5" font-family="DejaVu Sans, Liberation Sans, Arial, sans-serif" font-size="12.5" font-weight="normal" font-style="normal" text-anchor="middle" fill="#000">Празен ред?</text><rect x="259.0" y="298" width="262" height="46" rx="0" fill="#fff" stroke="#000" stroke-width="1.5"/><text x="390" y="317.25" font-family="DejaVu Sans, Liberation Sans, Arial, sans-serif" font-size="12.5" font-weight="normal" font-style="normal" text-anchor="middle" fill="#000">Копие с главни букви (up);</text><text x="390" y="333.75" font-family="DejaVu Sans, Liberation Sans, Arial, sans-serif" font-size="12.5" font-weight="normal" font-style="normal" text-anchor="middle" fill="#000">ехо, паролите – скрити</text><polygon points="390,364 530.0,395.0 390,426 250.0,395.0" fill="#fff" stroke="#000" stroke-width="1.5"/><text x="390" y="391.25" font-family="DejaVu Sans, Liberation Sans, Arial, sans-serif" font-size="12.5" font-weight="normal" font-style="normal" text-anchor="middle" fill="#000">Започва</text><text x="390" y="407.75" font-family="DejaVu Sans, Liberation Sans, Arial, sans-serif" font-size="12.5" font-weight="normal" font-style="normal" text-anchor="middle" fill="#000">със „SET "?</text><polygon points="390,446 530.0,477.0 390,508 250.0,477.0" fill="#fff" stroke="#000" stroke-width="1.5"/><text x="390" y="473.25" font-family="DejaVu Sans, Liberation Sans, Arial, sans-serif" font-size="12.5" font-weight="normal" font-style="normal" text-anchor="middle" fill="#000">SAVE, PUSH</text><text x="390" y="489.75" font-family="DejaVu Sans, Liberation Sans, Arial, sans-serif" font-size="12.5" font-weight="normal" font-style="normal" text-anchor="middle" fill="#000">или FACTORY?</text><polygon points="390,528 530.0,559.0 390,590 250.0,559.0" fill="#fff" stroke="#000" stroke-width="1.5"/><text x="390" y="555.25" font-family="DejaVu Sans, Liberation Sans, Arial, sans-serif" font-size="12.5" font-weight="normal" font-style="normal" text-anchor="middle" fill="#000">PING, LOG</text><text x="390" y="571.75" font-family="DejaVu Sans, Liberation Sans, Arial, sans-serif" font-size="12.5" font-weight="normal" font-style="normal" text-anchor="middle" fill="#000">или RESET STATS?</text><polygon points="390,610 530.0,641.0 390,672 250.0,641.0" fill="#fff" stroke="#000" stroke-width="1.5"/><text x="390" y="637.25" font-family="DejaVu Sans, Liberation Sans, Arial, sans-serif" font-size="12.5" font-weight="normal" font-style="normal" text-anchor="middle" fill="#000">1…7, M или</text><text x="390" y="653.75" font-family="DejaVu Sans, Liberation Sans, Arial, sans-serif" font-size="12.5" font-weight="normal" font-style="normal" text-anchor="middle" fill="#000">R&lt;n&gt; ON/OFF?</text><polygon points="390,692 530.0,723.0 390,754 250.0,723.0" fill="#fff" stroke="#000" stroke-width="1.5"/><text x="390" y="719.25" font-family="DejaVu Sans, Liberation Sans, Arial, sans-serif" font-size="12.5" font-weight="normal" font-style="normal" text-anchor="middle" fill="#000">Включване</text><text x="390" y="735.75" font-family="DejaVu Sans, Liberation Sans, Arial, sans-serif" font-size="12.5" font-weight="normal" font-style="normal" text-anchor="middle" fill="#000">при блокировка?</text><rect x="259.0" y="774" width="262" height="46" rx="0" fill="#fff" stroke="#000" stroke-width="1.5"/><text x="390" y="793.25" font-family="DejaVu Sans, Liberation Sans, Arial, sans-serif" font-size="12.5" font-weight="normal" font-style="normal" text-anchor="middle" fill="#000">Изпълнение; командите за</text><text x="390" y="809.75" font-family="DejaVu Sans, Liberation Sans, Arial, sans-serif" font-size="12.5" font-weight="normal" font-style="normal" text-anchor="middle" fill="#000">релета – чрез опашката</text><rect x="265.0" y="850" width="250" height="34" rx="17.0" fill="#fff" stroke="#000" stroke-width="1.6"/><text x="390" y="871.5" font-family="DejaVu Sans, Liberation Sans, Arial, sans-serif" font-size="12.5" font-weight="normal" font-style="normal" text-anchor="middle" fill="#000">Край – връщане в loop()</text><rect x="20.0" y="453" width="196" height="48" rx="0" fill="#fff" stroke="#000" stroke-width="1.5"/><text x="118" y="473.25" font-family="DejaVu Sans, Liberation Sans, Arial, sans-serif" font-size="12.5" font-weight="normal" font-style="normal" text-anchor="middle" fill="#000">Запис в EEPROM; CONFIG</text><text x="118" y="489.75" font-family="DejaVu Sans, Liberation Sans, Arial, sans-serif" font-size="12.5" font-weight="normal" font-style="normal" text-anchor="middle" fill="#000">в опашката; рестарт</text><rect x="20.0" y="535" width="196" height="48" rx="0" fill="#fff" stroke="#000" stroke-width="1.5"/><text x="118" y="555.25" font-family="DejaVu Sans, Liberation Sans, Arial, sans-serif" font-size="12.5" font-weight="normal" font-style="normal" text-anchor="middle" fill="#000">Тест PING; запис CSV;</text><text x="118" y="571.75" font-family="DejaVu Sans, Liberation Sans, Arial, sans-serif" font-size="12.5" font-weight="normal" font-style="normal" text-anchor="middle" fill="#000">нулиране на броячите</text><polygon points="34.0,618 216.0,618 202.0,664 20.0,664" fill="#fff" stroke="#000" stroke-width="1.5"/><text x="118" y="645.5" font-family="DejaVu Sans, Liberation Sans, Arial, sans-serif" font-size="12.5" font-weight="normal" font-style="normal" text-anchor="middle" fill="#000">„Непозната команда"</text><polygon points="34.0,700 216.0,700 202.0,746 20.0,746" fill="#fff" stroke="#000" stroke-width="1.5"/><text x="118" y="727.5" font-family="DejaVu Sans, Liberation Sans, Arial, sans-serif" font-size="12.5" font-weight="normal" font-style="normal" text-anchor="middle" fill="#000">„Отказ – влага"</text><rect x="555.0" y="371" width="200" height="48" rx="0" fill="#fff" stroke="#000" stroke-width="1.5"/><text x="655" y="391.25" font-family="DejaVu Sans, Liberation Sans, Arial, sans-serif" font-size="12.5" font-weight="normal" font-style="normal" text-anchor="middle" fill="#000">Отделяне на ключа</text><text x="655" y="407.75" font-family="DejaVu Sans, Liberation Sans, Arial, sans-serif" font-size="12.5" font-weight="normal" font-style="normal" text-anchor="middle" fill="#000">и стойността</text><polygon points="655,439 755.0,469.0 655,499 555.0,469.0" fill="#fff" stroke="#000" stroke-width="1.5"/><text x="655" y="465.25" font-family="DejaVu Sans, Liberation Sans, Arial, sans-serif" font-size="12.5" font-weight="normal" font-style="normal" text-anchor="middle" fill="#000">Има</text><text x="655" y="481.75" font-family="DejaVu Sans, Liberation Sans, Arial, sans-serif" font-size="12.5" font-weight="normal" font-style="normal" text-anchor="middle" fill="#000">стойност?</text><polygon points="655,519 755.0,549.0 655,579 555.0,549.0" fill="#fff" stroke="#000" stroke-width="1.5"/><text x="655" y="545.25" font-family="DejaVu Sans, Liberation Sans, Arial, sans-serif" font-size="12.5" font-weight="normal" font-style="normal" text-anchor="middle" fill="#000">Познат</text><text x="655" y="561.75" font-family="DejaVu Sans, Liberation Sans, Arial, sans-serif" font-size="12.5" font-weight="normal" font-style="normal" text-anchor="middle" fill="#000">ключ?</text><polygon points="655,599 755.0,629.0 655,659 555.0,629.0" fill="#fff" stroke="#000" stroke-width="1.5"/><text x="655" y="625.25" font-family="DejaVu Sans, Liberation Sans, Arial, sans-serif" font-size="12.5" font-weight="normal" font-style="normal" text-anchor="middle" fill="#000">Допустима</text><text x="655" y="641.75" font-family="DejaVu Sans, Liberation Sans, Arial, sans-serif" font-size="12.5" font-weight="normal" font-style="normal" text-anchor="middle" fill="#000">стойност?</text><rect x="555.0" y="679" width="200" height="48" rx="0" fill="#fff" stroke="#000" stroke-width="1.5"/><text x="655" y="699.25" font-family="DejaVu Sans, Liberation Sans, Arial, sans-serif" font-size="12.5" font-weight="normal" font-style="normal" text-anchor="middle" fill="#000">Запис в cfg (RAM);</text><text x="655" y="715.75" font-family="DejaVu Sans, Liberation Sans, Arial, sans-serif" font-size="12.5" font-weight="normal" font-style="normal" text-anchor="middle" fill="#000">„изпълнете SAVE"</text><polygon points="582.0,767 760.0,767 746.0,813 568.0,813" fill="#fff" stroke="#000" stroke-width="1.5"/><text x="664" y="794.5" font-family="DejaVu Sans, Liberation Sans, Arial, sans-serif" font-size="12.5" font-weight="normal" font-style="normal" text-anchor="middle" fill="#000">Съобщение за грешка</text><polyline points="390,50 390,70" fill="none" stroke="#000" stroke-width="1.4" marker-end="url(#a)"/><polyline points="390,134 390,154" fill="none" stroke="#000" stroke-width="1.4" marker-end="url(#a)"/><polyline points="390,200 390,220" fill="none" stroke="#000" stroke-width="1.4" marker-end="url(#a)"/><polyline points="390,278 390,298" fill="none" stroke="#000" stroke-width="1.4" marker-end="url(#a)"/><polyline points="390,344 390,364" fill="none" stroke="#000" stroke-width="1.4" marker-end="url(#a)"/><polyline points="390,426 390,446" fill="none" stroke="#000" stroke-width="1.4" marker-end="url(#a)"/><polyline points="390,508 390,528" fill="none" stroke="#000" stroke-width="1.4" marker-end="url(#a)"/><polyline points="390,590 390,610" fill="none" stroke="#000" stroke-width="1.4" marker-end="url(#a)"/><polyline points="390,672 390,692" fill="none" stroke="#000" stroke-width="1.4" marker-end="url(#a)"/><polyline points="390,754 390,774" fill="none" stroke="#000" stroke-width="1.4" marker-end="url(#a)"/><polyline points="390,820 390,850" fill="none" stroke="#000" stroke-width="1.4" marker-end="url(#a)"/><text x="396" y="147" font-family="DejaVu Sans, Liberation Sans, Arial, sans-serif" font-size="11.5" font-weight="normal" font-style="italic" text-anchor="start" fill="#000">да</text><text x="396" y="291" font-family="DejaVu Sans, Liberation Sans, Arial, sans-serif" font-size="11.5" font-weight="normal" font-style="italic" text-anchor="start" fill="#000">не</text><text x="396" y="439" font-family="DejaVu Sans, Liberation Sans, Arial, sans-serif" font-size="11.5" font-weight="normal" font-style="italic" text-anchor="start" fill="#000">не</text><text x="396" y="521" font-family="DejaVu Sans, Liberation Sans, Arial, sans-serif" font-size="11.5" font-weight="normal" font-style="italic" text-anchor="start" fill="#000">не</text><text x="396" y="603" font-family="DejaVu Sans, Liberation Sans, Arial, sans-serif" font-size="11.5" font-weight="normal" font-style="italic" text-anchor="start" fill="#000">не</text><text x="396" y="685" font-family="DejaVu Sans, Liberation Sans, Arial, sans-serif" font-size="11.5" font-weight="normal" font-style="italic" text-anchor="start" fill="#000">да</text><text x="396" y="767" font-family="DejaVu Sans, Liberation Sans, Arial, sans-serif" font-size="11.5" font-weight="normal" font-style="italic" text-anchor="start" fill="#000">не</text><polyline points="250.0,477.0 216.0,477.0" fill="none" stroke="#000" stroke-width="1.4" marker-end="url(#a)"/><text x="246.0" y="471.0" font-family="DejaVu Sans, Liberation Sans, Arial, sans-serif" font-size="11.5" font-weight="normal" font-style="italic" text-anchor="end" fill="#000">да</text><polyline points="250.0,559.0 216.0,559.0" fill="none" stroke="#000" stroke-width="1.4" marker-end="url(#a)"/><text x="246.0" y="553.0" font-family="DejaVu Sans, Liberation Sans, Arial, sans-serif" font-size="11.5" font-weight="normal" font-style="italic" text-anchor="end" fill="#000">да</text><polyline points="250.0,723.0 209.0,723.0" fill="none" stroke="#000" stroke-width="1.4" marker-end="url(#a)"/><text x="246.0" y="717.0" font-family="DejaVu Sans, Liberation Sans, Arial, sans-serif" font-size="11.5" font-weight="normal" font-style="italic" text-anchor="end" fill="#000">да</text><polyline points="250.0,641.0 209.0,641.0" fill="none" stroke="#000" stroke-width="1.4" marker-end="url(#a)"/><text x="246.0" y="635.0" font-family="DejaVu Sans, Liberation Sans, Arial, sans-serif" font-size="11.5" font-weight="normal" font-style="italic" text-anchor="end" fill="#000">не</text><polyline points="250.0,102.0 14,102.0 14,867.0 265.0,867.0" fill="none" stroke="#000" stroke-width="1.4" marker-end="url(#a)"/><text x="246.0" y="96.0" font-family="DejaVu Sans, Liberation Sans, Arial, sans-serif" font-size="11.5" font-weight="normal" font-style="italic" text-anchor="end" fill="#000">не</text><polyline points="250.0,249.0 14,249.0" fill="none" stroke="#000" stroke-width="1.4"/><circle cx="14" cy="249.0" r="2.8" fill="#000"/><text x="246.0" y="243.0" font-family="DejaVu Sans, Liberation Sans, Arial, sans-serif" font-size="11.5" font-weight="normal" font-style="italic" text-anchor="end" fill="#000">да</text><polyline points="20.0,477.0 14,477.0" fill="none" stroke="#000" stroke-width="1.4"/><circle cx="14" cy="477.0" r="2.8" fill="#000"/><polyline points="20.0,559.0 14,559.0" fill="none" stroke="#000" stroke-width="1.4"/><circle cx="14" cy="559.0" r="2.8" fill="#000"/><polyline points="27.0,641.0 14,641.0" fill="none" stroke="#000" stroke-width="1.4"/><circle cx="14" cy="641.0" r="2.8" fill="#000"/><polyline points="27.0,723.0 14,723.0" fill="none" stroke="#000" stroke-width="1.4"/><circle cx="14" cy="723.0" r="2.8" fill="#000"/><polyline points="530.0,395.0 555.0,395.0" fill="none" stroke="#000" stroke-width="1.4" marker-end="url(#a)"/><text x="535.0" y="389.0" font-family="DejaVu Sans, Liberation Sans, Arial, sans-serif" font-size="11.5" font-weight="normal" font-style="italic" text-anchor="start" fill="#000">да</text><polyline points="655,419 655,439" fill="none" stroke="#000" stroke-width="1.4" marker-end="url(#a)"/><polyline points="655,499 655,519" fill="none" stroke="#000" stroke-width="1.4" marker-end="url(#a)"/><polyline points="655,579 655,599" fill="none" stroke="#000" stroke-width="1.4" marker-end="url(#a)"/><polyline points="655,659 655,679" fill="none" stroke="#000" stroke-width="1.4" marker-end="url(#a)"/><text x="661" y="512" font-family="DejaVu Sans, Liberation Sans, Arial, sans-serif" font-size="11.5" font-weight="normal" font-style="italic" text-anchor="start" fill="#000">да</text><polyline points="755.0,469.0 770,469.0" fill="none" stroke="#000" stroke-width="1.4"/><text x="758.0" y="464.0" font-family="DejaVu Sans, Liberation Sans, Arial, sans-serif" font-size="11.5" font-weight="normal" font-style="italic" text-anchor="start" fill="#000">не</text><text x="661" y="592" font-family="DejaVu Sans, Liberation Sans, Arial, sans-serif" font-size="11.5" font-weight="normal" font-style="italic" text-anchor="start" fill="#000">да</text><polyline points="755.0,549.0 770,549.0" fill="none" stroke="#000" stroke-width="1.4"/><text x="758.0" y="544.0" font-family="DejaVu Sans, Liberation Sans, Arial, sans-serif" font-size="11.5" font-weight="normal" font-style="italic" text-anchor="start" fill="#000">не</text><circle cx="770" cy="549.0" r="2.8" fill="#000"/><text x="661" y="672" font-family="DejaVu Sans, Liberation Sans, Arial, sans-serif" font-size="11.5" font-weight="normal" font-style="italic" text-anchor="start" fill="#000">да</text><polyline points="755.0,629.0 770,629.0" fill="none" stroke="#000" stroke-width="1.4"/><text x="758.0" y="624.0" font-family="DejaVu Sans, Liberation Sans, Arial, sans-serif" font-size="11.5" font-weight="normal" font-style="italic" text-anchor="start" fill="#000">не</text><circle cx="770" cy="629.0" r="2.8" fill="#000"/><polyline points="770,469.0 770,790.0 753.0,790.0" fill="none" stroke="#000" stroke-width="1.4" marker-end="url(#a)"/><polyline points="655,727 655,739 540,739 540,867.0" fill="none" stroke="#000" stroke-width="1.4"/><polyline points="664,813 664,836 540,836" fill="none" stroke="#000" stroke-width="1.4"/><circle cx="540" cy="836" r="2.8" fill="#000"/><polyline points="540,867.0 515.0,867.0" fill="none" stroke="#000" stroke-width="1.4" marker-end="url(#a)"/><text x="390.0" y="914" font-family="DejaVu Sans, Liberation Sans, Arial, sans-serif" font-size="15" font-weight="bold" font-style="normal" text-anchor="middle" fill="#000">Фиг. 3.2. Алгоритъм за обработка на командите по UART</text></svg>