<svg xmlns="http://www.w3.org/2000/svg" xmlns:xlink="http://www.w3.org/1999/xlink" width="960" height="560" viewBox="0 0 960 560"><defs><marker id="a" markerWidth="9" markerHeight="7" refX="8.5" refY="3.5" orient="auto"><polygon points="0 0, 9 3.5, 0 7" fill="#000"/></marker><marker id="as" markerWidth="9" markerHeight="7" refX="0.5" refY="3.5" orient="auto"><polygon points="9 0, 0 3.5, 9 7" fill="#000"/></marker></defs><rect width="960" height="560" fill="#fff"/><line x1="60" y1="80" x2="890" y2="80" stroke="#000" stroke-width="2"/><line x1="60" y1="450" x2="890" y2="450" stroke="#000" stroke-width="2"/><circle cx="56" cy="80" r="5" fill="#fff" stroke="#000" stroke-width="1.4"/><text x="44" y="84" font-family="DejaVu Sans, Liberation Sans, Arial, sans-serif" font-size="11" font-weight="bold" font-style="normal" text-anchor="end" fill="#000">VCC</text><circle cx="56" cy="260" r="5" fill="#fff" stroke="#000" stroke-width="1.4"/><text x="44" y="264" font-family="DejaVu Sans, Liberation Sans, Arial, sans-serif" font-size="11" font-weight="bold" font-style="normal" text-anchor="end" fill="#000">IN</text><circle cx="56" cy="450" r="5" fill="#fff" stroke="#000" stroke-width="1.4"/><text x="44" y="454" font-family="DejaVu Sans, Liberation Sans, Arial, sans-serif" font-size="11" font-weight="bold" font-style="normal" text-anchor="end" fill="#000">GND</text><text x="56" y="48" font-family="DejaVu Sans, Liberation Sans, Arial, sans-serif" font-size="11" font-weight="bold" font-style="normal" text-anchor="middle" fill="#000">X1</text><text x="890" y="72" font-family="DejaVu Sans, Liberation Sans, Arial, sans-serif" font-size="11" font-weight="bold" font-style="normal" text-anchor="end" fill="#000">+5 V</text><line x1="61" y1="260" x2="116.0" y2="260" stroke="#000" stroke-width="1.5"/><rect x="116.0" y="254.0" width="34" height="12" rx="0" fill="#fff" stroke="#000" stroke-width="1.5"/><line x1="150.0" y1="260" x2="205" y2="260" stroke="#000" stroke-width="1.5"/><text x="133.0" y="249.0" font-family="DejaVu Sans, Liberation Sans, Arial, sans-serif" font-size="11" font-weight="bold" font-style="normal" text-anchor="middle" fill="#000">R1</text><text x="133.0" y="279.0" font-family="DejaVu Sans, Liberation Sans, Arial, sans-serif" font-size="10" font-weight="normal" font-style="normal" text-anchor="middle" fill="#000">1 kΩ</text><line x1="205" y1="260" x2="232" y2="260" stroke="#000" stroke-width="1.5"/><line x1="232" y1="260" x2="232" y2="268" stroke="#000" stroke-width="1.5"/><rect x="212" y="232" width="150" height="135" rx="4" fill="none" stroke="#000" stroke-width="1.3" stroke-dasharray="6 4"/><text x="287" y="226" font-family="DejaVu Sans, Liberation Sans, Arial, sans-serif" font-size="11" font-weight="bold" font-style="normal" text-anchor="middle" fill="#000">U1 (PC817)</text><polygon points="224,272 240,272 232,288" fill="#fff" stroke="#000" stroke-width="1.5"/><line x1="222" y1="288" x2="242" y2="288" stroke="#000" stroke-width="1.8"/><line x1="232" y1="288" x2="232" y2="380" stroke="#000" stroke-width="1.5"/><line x1="250" y1="274" x2="280" y2="274" stroke="#000" stroke-width="1.2" marker-end="url(#a)"/><line x1="250" y1="286" x2="280" y2="286" stroke="#000" stroke-width="1.2" marker-end="url(#a)"/><circle cx="316" cy="280" r="21" fill="#fff" stroke="#000" stroke-width="1.3"/><line x1="308" y1="268" x2="308" y2="292" stroke="#000" stroke-width="2.4"/><line x1="308" y1="274" x2="326" y2="262" stroke="#000" stroke-width="1.5"/><line x1="326" y1="262" x2="326" y2="80" stroke="#000" stroke-width="1.5"/><line x1="308" y1="286" x2="326" y2="298" stroke="#000" stroke-width="1.5" marker-end="url(#a)"/><line x1="326" y1="298" x2="326" y2="330" stroke="#000" stroke-width="1.5"/><circle cx="326" cy="80" r="3.2" fill="#000"/><rect x="185" y="385" width="14" height="14" rx="0" fill="#fff" stroke="#000" stroke-width="1.3"/><text x="192" y="416" font-family="DejaVu Sans, Liberation Sans, Arial, sans-serif" font-size="9.5" font-weight="bold" font-style="normal" text-anchor="middle" fill="#000">L</text><rect x="225" y="385" width="14" height="14" rx="0" fill="#fff" stroke="#000" stroke-width="1.3"/><text x="232" y="416" font-family="DejaVu Sans, Liberation Sans, Arial, sans-serif" font-size="9.5" font-weight="bold" font-style="normal" text-anchor="middle" fill="#000">COM</text><rect x="265" y="385" width="14" height="14" rx="0" fill="#fff" stroke="#000" stroke-width="1.3"/><text x="272" y="416" font-family="DejaVu Sans, Liberation Sans, Arial, sans-serif" font-size="9.5" font-weight="bold" font-style="normal" text-anchor="middle" fill="#000">H</text><rect x="225" y="380" width="54" height="24" rx="6" fill="none" stroke="#000" stroke-width="2"/><line x1="232" y1="380" x2="232" y2="385" stroke="#000" stroke-width="1.5"/><line x1="272" y1="399" x2="272" y2="450" stroke="#000" stroke-width="1.5"/><circle cx="272" cy="450" r="3.2" fill="#000"/><line x1="192" y1="385" x2="192" y2="350" stroke="#000" stroke-width="1.2" stroke-dasharray="4 3"/><text x="186" y="344" font-family="DejaVu Sans, Liberation Sans, Arial, sans-serif" font-size="9" font-weight="normal" font-style="italic" text-anchor="end" fill="#000">L – виж текста</text><text x="232" y="432" font-family="DejaVu Sans, Liberation Sans, Arial, sans-serif" font-size="10" font-weight="bold" font-style="normal" text-anchor="middle" fill="#000">J1 (показано H)</text><line x1="326" y1="330" x2="326" y2="360" stroke="#000" stroke-width="1.5"/><line x1="326" y1="360" x2="366.0" y2="360" stroke="#000" stroke-width="1.5"/><rect x="366.0" y="354.0" width="34" height="12" rx="0" fill="#fff" stroke="#000" stroke-width="1.5"/><line x1="400.0" y1="360" x2="440" y2="360" stroke="#000" stroke-width="1.5"/><text x="383.0" y="349.0" font-family="DejaVu Sans, Liberation Sans, Arial, sans-serif" font-size="11" font-weight="bold" font-style="normal" text-anchor="middle" fill="#000">R2</text><text x="383.0" y="379.0" font-family="DejaVu Sans, Liberation Sans, Arial, sans-serif" font-size="10" font-weight="normal" font-style="normal" text-anchor="middle" fill="#000">1 kΩ</text><circle cx="466" cy="360" r="20" fill="#fff" stroke="#000" stroke-width="1.3"/><line x1="440" y1="360" x2="456" y2="360" stroke="#000" stroke-width="1.5"/><line x1="456" y1="348" x2="456" y2="372" stroke="#000" stroke-width="2.4"/><line x1="456" y1="354" x2="474" y2="342" stroke="#000" stroke-width="1.5"/><line x1="474" y1="342" x2="474" y2="334" stroke="#000" stroke-width="1.5"/><line x1="456" y1="366" x2="474" y2="378" stroke="#000" stroke-width="1.5" marker-end="url(#a)"/><line x1="474" y1="378" x2="474" y2="386" stroke="#000" stroke-width="1.5"/><text x="492" y="364" font-family="DejaVu Sans, Liberation Sans, Arial, sans-serif" font-size="10.5" font-weight="bold" font-style="normal" text-anchor="start" fill="#000">VT1</text><line x1="474" y1="386" x2="474" y2="450" stroke="#000" stroke-width="1.5"/><circle cx="474" cy="450" r="3.2" fill="#000"/><line x1="474" y1="80" x2="474" y2="190" stroke="#000" stroke-width="1.5"/><rect x="458" y="190" width="32" height="80" rx="0" fill="#fff" stroke="#000" stroke-width="1.6"/><text x="498" y="212" font-family="DejaVu Sans, Liberation Sans, Arial, sans-serif" font-size="12" font-weight="bold" font-style="normal" text-anchor="start" fill="#000">K1</text><text x="498" y="264" font-family="DejaVu Sans, Liberation Sans, Arial, sans-serif" font-size="10" font-weight="normal" font-style="normal" text-anchor="start" fill="#000">70 Ω</text><line x1="474" y1="270" x2="474" y2="334" stroke="#000" stroke-width="1.5"/><circle cx="474" cy="80" r="3.2" fill="#000"/><line x1="474" y1="160" x2="410" y2="160" stroke="#000" stroke-width="1.5"/><line x1="474" y1="300" x2="410" y2="300" stroke="#000" stroke-width="1.5"/><circle cx="474" cy="160" r="3.2" fill="#000"/><circle cx="474" cy="300" r="3.2" fill="#000"/><line x1="410" y1="160" x2="410" y2="223.0" stroke="#000" stroke-width="1.5"/><polygon points="401,237.0 419,237.0 410,223.0" fill="#fff" stroke="#000" stroke-width="1.5"/><line x1="401" y1="223.0" x2="419" y2="223.0" stroke="#000" stroke-width="1.8"/><line x1="410" y1="237.0" x2="410" y2="300" stroke="#000" stroke-width="1.5"/><text x="396" y="234.0" font-family="DejaVu Sans, Liberation Sans, Arial, sans-serif" font-size="10.5" font-weight="bold" font-style="normal" text-anchor="end" fill="#000">VD1</text><line x1="490" y1="236" x2="780" y2="236" stroke="#000" stroke-width="1.4" stroke-dasharray="2 4"/><circle cx="870" cy="180" r="4" fill="#fff" stroke="#000" stroke-width="1.4"/><circle cx="870" cy="320" r="4" fill="#fff" stroke="#000" stroke-width="1.4"/><line x1="874" y1="180" x2="905" y2="180" stroke="#000" stroke-width="1.5"/><line x1="874" y1="320" x2="905" y2="320" stroke="#000" stroke-width="1.5"/><circle cx="910" cy="180" r="5" fill="#fff" stroke="#000" stroke-width="1.4"/><circle cx="910" cy="320" r="5" fill="#fff" stroke="#000" stroke-width="1.4"/><text x="922" y="184" font-family="DejaVu Sans, Liberation Sans, Arial, sans-serif" font-size="11" font-weight="bold" font-style="normal" text-anchor="start" fill="#000">NO</text><text x="922" y="324" font-family="DejaVu Sans, Liberation Sans, Arial, sans-serif" font-size="11" font-weight="bold" font-style="normal" text-anchor="start" fill="#000">NC</text><circle cx="800" cy="250" r="4" fill="#fff" stroke="#000" stroke-width="1.4"/><line x1="803" y1="253" x2="864" y2="314" stroke="#000" stroke-width="2"/><line x1="800" y1="254" x2="800" y2="400" stroke="#000" stroke-width="1.5"/><line x1="800" y1="400" x2="905" y2="400" stroke="#000" stroke-width="1.5"/><circle cx="910" cy="400" r="5" fill="#fff" stroke="#000" stroke-width="1.4"/><text x="922" y="404" font-family="DejaVu Sans, Liberation Sans, Arial, sans-serif" font-size="11" font-weight="bold" font-style="normal" text-anchor="start" fill="#000">COM</text><text x="912" y="150" font-family="DejaVu Sans, Liberation Sans, Arial, sans-serif" font-size="11" font-weight="bold" font-style="normal" text-anchor="middle" fill="#000">X2</text><text x="770" y="228" font-family="DejaVu Sans, Liberation Sans, Arial, sans-serif" font-size="9" font-weight="normal" font-style="italic" text-anchor="end" fill="#000">механична връзка</text><text x="905" y="438" font-family="DejaVu Sans, Liberation Sans, Arial, sans-serif" font-size="9.5" font-weight="normal" font-style="italic" text-anchor="end" fill="#000">към товара, до 250 V~ / 10 A</text><text x="60" y="492" font-family="DejaVu Sans, Liberation Sans, Arial, sans-serif" font-size="10" font-weight="normal" font-style="normal" text-anchor="start" fill="#000">Показано е положение H на джъмпера J1: светодиодът на оптрона свети при високо ниво на IN.</text><text x="60" y="508" font-family="DejaVu Sans, Liberation Sans, Arial, sans-serif" font-size="10" font-weight="normal" font-style="normal" text-anchor="start" fill="#000">Типична схема на модулите от този клас – производителят не публикува принципна схема.</text><text x="480.0" y="544" font-family="DejaVu Sans, Liberation Sans, Arial, sans-serif" font-size="14" font-weight="bold" font-style="normal" text-anchor="middle" fill="#000">Фиг. 2.2. Типична схема на релеен модул с оптронен вход</text></svg>